<mxfile host="app.diagrams.net" modified="2023-11-03T18:29:37.607Z" agent="Mozilla/5.0 (Windows NT 10.0; Win64; x64) AppleWebKit/537.36 (KHTML, like Gecko) Chrome/118.0.0.0 Safari/537.36" etag="_CnXl0_BsrQqDE8h93F9" version="21.7.4" type="github">
  <diagram name="Page-1" id="dd472eb7-4b8b-5cd9-a60b-b15522922e76">
    <mxGraphModel dx="1014" dy="670" grid="1" gridSize="10" guides="1" tooltips="1" connect="1" arrows="1" fold="1" page="1" pageScale="1" pageWidth="1100" pageHeight="850" background="none" math="0" shadow="0">
      <root>
        <mxCell id="0" />
        <mxCell id="1" parent="0" />
        <mxCell id="45236fa5f4b8e91a-1" value="S1 Stand" style="ellipse;whiteSpace=wrap;html=1;rounded=0;shadow=0;dashed=0;comic=0;fontFamily=Verdana;fontSize=22;fontColor=#0069D1;fillColor=#f5f5f5;strokeColor=#666666;" parent="1" vertex="1">
          <mxGeometry x="470" y="10" width="160" height="160" as="geometry" />
        </mxCell>
        <mxCell id="45236fa5f4b8e91a-2" value="S5 Mov Side" style="ellipse;whiteSpace=wrap;html=1;rounded=0;shadow=0;dashed=0;comic=0;fontFamily=Verdana;fontSize=22;fontColor=#0069D1;fillColor=#f5f5f5;strokeColor=#666666;" parent="1" vertex="1">
          <mxGeometry x="580" y="530" width="160" height="160" as="geometry" />
        </mxCell>
        <mxCell id="45236fa5f4b8e91a-3" value="S3 Mve Fwd" style="ellipse;whiteSpace=wrap;html=1;rounded=0;shadow=0;dashed=0;comic=0;fontFamily=Verdana;fontSize=22;fontColor=#0069D1;fillColor=#f5f5f5;strokeColor=#666666;" parent="1" vertex="1">
          <mxGeometry x="840" y="220" width="160" height="160" as="geometry" />
        </mxCell>
        <mxCell id="45236fa5f4b8e91a-4" value="S7 &lt;font style=&quot;font-size: 20px;&quot;&gt;Rmv Items&lt;/font&gt;" style="ellipse;whiteSpace=wrap;html=1;rounded=0;shadow=0;dashed=0;comic=0;fontFamily=Verdana;fontSize=22;fontColor=#0069D1;fillColor=#f5f5f5;strokeColor=#666666;" parent="1" vertex="1">
          <mxGeometry x="130" y="425" width="160" height="160" as="geometry" />
        </mxCell>
        <mxCell id="45236fa5f4b8e91a-5" value="S8 Mve Bwd" style="ellipse;whiteSpace=wrap;html=1;rounded=0;shadow=0;dashed=0;comic=0;fontFamily=Verdana;fontSize=22;fontColor=#0069D1;fillColor=#f5f5f5;strokeColor=#666666;" parent="1" vertex="1">
          <mxGeometry x="50" y="220" width="160" height="160" as="geometry" />
        </mxCell>
        <mxCell id="45236fa5f4b8e91a-6" value="S2 Chk IDs" style="ellipse;whiteSpace=wrap;html=1;rounded=0;shadow=0;dashed=0;comic=0;fontFamily=Verdana;fontSize=22;fontColor=#0069D1;fillColor=#f5f5f5;strokeColor=#666666;" parent="1" vertex="1">
          <mxGeometry x="700" y="60" width="160" height="160" as="geometry" />
        </mxCell>
        <mxCell id="45236fa5f4b8e91a-7" value="S4 Avoid" style="ellipse;whiteSpace=wrap;html=1;rounded=0;shadow=0;dashed=0;comic=0;fontFamily=Verdana;fontSize=22;fontColor=#0069D1;fillColor=#f5f5f5;strokeColor=#666666;" parent="1" vertex="1">
          <mxGeometry x="790" y="425" width="160" height="160" as="geometry" />
        </mxCell>
        <mxCell id="45236fa5f4b8e91a-8" value="S6 Serve" style="ellipse;whiteSpace=wrap;html=1;rounded=0;shadow=0;dashed=0;comic=0;fontFamily=Verdana;fontSize=22;fontColor=#0069D1;fillColor=#f5f5f5;strokeColor=#666666;" parent="1" vertex="1">
          <mxGeometry x="330" y="530" width="160" height="160" as="geometry" />
        </mxCell>
        <mxCell id="BMzWkoF-RMPC0aLK7jVe-1" value="S9 Asw Tel" style="ellipse;whiteSpace=wrap;html=1;rounded=0;shadow=0;dashed=0;comic=0;fontFamily=Verdana;fontSize=22;fontColor=#0069D1;fillColor=#f5f5f5;strokeColor=#666666;" vertex="1" parent="1">
          <mxGeometry x="230" y="60" width="160" height="160" as="geometry" />
        </mxCell>
        <mxCell id="BMzWkoF-RMPC0aLK7jVe-3" value="" style="curved=1;endArrow=classic;html=1;rounded=0;entryX=0.288;entryY=0.053;entryDx=0;entryDy=0;entryPerimeter=0;exitX=0.028;exitY=0.3;exitDx=0;exitDy=0;exitPerimeter=0;" edge="1" parent="1" source="45236fa5f4b8e91a-1" target="45236fa5f4b8e91a-1">
          <mxGeometry width="50" height="50" relative="1" as="geometry">
            <mxPoint x="430" y="60" as="sourcePoint" />
            <mxPoint x="480" y="10" as="targetPoint" />
            <Array as="points">
              <mxPoint x="480" y="60" />
              <mxPoint x="430" y="10" />
            </Array>
          </mxGeometry>
        </mxCell>
        <mxCell id="BMzWkoF-RMPC0aLK7jVe-5" value="" style="curved=1;endArrow=classic;html=1;rounded=0;exitX=0.569;exitY=0.016;exitDx=0;exitDy=0;exitPerimeter=0;entryX=0.794;entryY=0.084;entryDx=0;entryDy=0;entryPerimeter=0;" edge="1" parent="1" source="45236fa5f4b8e91a-3" target="45236fa5f4b8e91a-3">
          <mxGeometry width="50" height="50" relative="1" as="geometry">
            <mxPoint x="963.9227787671366" y="220.61776986290715" as="sourcePoint" />
            <mxPoint x="1010" y="223" as="targetPoint" />
            <Array as="points">
              <mxPoint x="930" y="210" />
              <mxPoint x="950" y="152" />
              <mxPoint x="970" y="180" />
            </Array>
          </mxGeometry>
        </mxCell>
        <mxCell id="BMzWkoF-RMPC0aLK7jVe-6" value="" style="curved=1;endArrow=classic;html=1;rounded=0;entryX=0.288;entryY=0.053;entryDx=0;entryDy=0;entryPerimeter=0;exitX=0;exitY=1;exitDx=0;exitDy=0;" edge="1" parent="1" source="45236fa5f4b8e91a-8">
          <mxGeometry width="50" height="50" relative="1" as="geometry">
            <mxPoint x="288" y="668" as="sourcePoint" />
            <mxPoint x="330" y="628" as="targetPoint" />
            <Array as="points">
              <mxPoint x="300" y="670" />
              <mxPoint x="260" y="660" />
            </Array>
          </mxGeometry>
        </mxCell>
        <mxCell id="BMzWkoF-RMPC0aLK7jVe-7" value="" style="curved=1;endArrow=classic;html=1;rounded=0;exitX=0.991;exitY=0.641;exitDx=0;exitDy=0;exitPerimeter=0;entryX=1;entryY=1;entryDx=0;entryDy=0;" edge="1" parent="1" source="45236fa5f4b8e91a-2" target="45236fa5f4b8e91a-2">
          <mxGeometry width="50" height="50" relative="1" as="geometry">
            <mxPoint x="790" y="650" as="sourcePoint" />
            <mxPoint x="760" y="680" as="targetPoint" />
            <Array as="points">
              <mxPoint x="780" y="620" />
              <mxPoint x="770" y="670" />
            </Array>
          </mxGeometry>
        </mxCell>
        <mxCell id="BMzWkoF-RMPC0aLK7jVe-12" value="" style="curved=1;endArrow=classic;html=1;rounded=0;" edge="1" parent="1" source="45236fa5f4b8e91a-4">
          <mxGeometry width="50" height="50" relative="1" as="geometry">
            <mxPoint x="110" y="580" as="sourcePoint" />
            <mxPoint x="130" y="490" as="targetPoint" />
            <Array as="points">
              <mxPoint x="130" y="540" />
              <mxPoint x="90" y="520" />
              <mxPoint x="80" y="490" />
            </Array>
          </mxGeometry>
        </mxCell>
        <mxCell id="BMzWkoF-RMPC0aLK7jVe-13" value="" style="curved=1;endArrow=classic;html=1;rounded=0;entryX=0.288;entryY=0.053;entryDx=0;entryDy=0;entryPerimeter=0;" edge="1" parent="1">
          <mxGeometry width="50" height="50" relative="1" as="geometry">
            <mxPoint x="230" y="115" as="sourcePoint" />
            <mxPoint x="266" y="73" as="targetPoint" />
            <Array as="points">
              <mxPoint x="230" y="115" />
              <mxPoint x="180" y="65" />
            </Array>
          </mxGeometry>
        </mxCell>
        <mxCell id="BMzWkoF-RMPC0aLK7jVe-14" value="" style="endArrow=classic;html=1;rounded=0;exitX=1.006;exitY=0.613;exitDx=0;exitDy=0;exitPerimeter=0;" edge="1" parent="1" source="45236fa5f4b8e91a-1">
          <mxGeometry width="50" height="50" relative="1" as="geometry">
            <mxPoint x="650" y="180" as="sourcePoint" />
            <mxPoint x="700" y="130" as="targetPoint" />
          </mxGeometry>
        </mxCell>
        <mxCell id="BMzWkoF-RMPC0aLK7jVe-16" value="" style="endArrow=classic;html=1;rounded=0;entryX=0.044;entryY=0.263;entryDx=0;entryDy=0;entryPerimeter=0;exitX=0.709;exitY=0.963;exitDx=0;exitDy=0;exitPerimeter=0;" edge="1" parent="1" source="45236fa5f4b8e91a-1" target="45236fa5f4b8e91a-3">
          <mxGeometry width="50" height="50" relative="1" as="geometry">
            <mxPoint x="650" y="300" as="sourcePoint" />
            <mxPoint x="700" y="250" as="targetPoint" />
          </mxGeometry>
        </mxCell>
        <mxCell id="BMzWkoF-RMPC0aLK7jVe-17" value="" style="endArrow=classic;html=1;rounded=0;exitX=0.397;exitY=0.994;exitDx=0;exitDy=0;exitPerimeter=0;" edge="1" parent="1" source="45236fa5f4b8e91a-1" target="45236fa5f4b8e91a-8">
          <mxGeometry width="50" height="50" relative="1" as="geometry">
            <mxPoint x="490" y="390" as="sourcePoint" />
            <mxPoint x="540" y="340" as="targetPoint" />
          </mxGeometry>
        </mxCell>
        <mxCell id="BMzWkoF-RMPC0aLK7jVe-18" value="" style="endArrow=classic;html=1;rounded=0;entryX=0.4;entryY=-0.009;entryDx=0;entryDy=0;entryPerimeter=0;exitX=0.5;exitY=1;exitDx=0;exitDy=0;" edge="1" parent="1" source="45236fa5f4b8e91a-1" target="45236fa5f4b8e91a-2">
          <mxGeometry width="50" height="50" relative="1" as="geometry">
            <mxPoint x="500" y="400" as="sourcePoint" />
            <mxPoint x="550" y="350" as="targetPoint" />
          </mxGeometry>
        </mxCell>
        <mxCell id="BMzWkoF-RMPC0aLK7jVe-19" value="" style="endArrow=classic;html=1;rounded=0;entryX=0.263;entryY=0.034;entryDx=0;entryDy=0;entryPerimeter=0;exitX=0.625;exitY=0.997;exitDx=0;exitDy=0;exitPerimeter=0;" edge="1" parent="1" source="45236fa5f4b8e91a-1" target="45236fa5f4b8e91a-7">
          <mxGeometry width="50" height="50" relative="1" as="geometry">
            <mxPoint x="510" y="410" as="sourcePoint" />
            <mxPoint x="560" y="360" as="targetPoint" />
          </mxGeometry>
        </mxCell>
        <mxCell id="BMzWkoF-RMPC0aLK7jVe-22" value="" style="endArrow=classic;html=1;rounded=0;entryX=0.991;entryY=0.616;entryDx=0;entryDy=0;entryPerimeter=0;exitX=0.116;exitY=0.819;exitDx=0;exitDy=0;exitPerimeter=0;" edge="1" parent="1" source="45236fa5f4b8e91a-1" target="45236fa5f4b8e91a-5">
          <mxGeometry width="50" height="50" relative="1" as="geometry">
            <mxPoint x="390" y="230" as="sourcePoint" />
            <mxPoint x="350" y="290" as="targetPoint" />
          </mxGeometry>
        </mxCell>
        <mxCell id="BMzWkoF-RMPC0aLK7jVe-23" value="" style="endArrow=classic;html=1;rounded=0;entryX=0.913;entryY=0.175;entryDx=0;entryDy=0;entryPerimeter=0;" edge="1" parent="1" source="45236fa5f4b8e91a-1" target="45236fa5f4b8e91a-4">
          <mxGeometry width="50" height="50" relative="1" as="geometry">
            <mxPoint x="470" y="180" as="sourcePoint" />
            <mxPoint x="430" y="320" as="targetPoint" />
          </mxGeometry>
        </mxCell>
        <mxCell id="BMzWkoF-RMPC0aLK7jVe-26" value="" style="endArrow=classic;html=1;rounded=0;exitX=-0.019;exitY=0.591;exitDx=0;exitDy=0;exitPerimeter=0;entryX=0.994;entryY=0.394;entryDx=0;entryDy=0;entryPerimeter=0;" edge="1" parent="1" source="45236fa5f4b8e91a-1" target="BMzWkoF-RMPC0aLK7jVe-1">
          <mxGeometry width="50" height="50" relative="1" as="geometry">
            <mxPoint x="467" y="105" as="sourcePoint" />
            <mxPoint x="390" y="131" as="targetPoint" />
            <Array as="points" />
          </mxGeometry>
        </mxCell>
        <mxCell id="BMzWkoF-RMPC0aLK7jVe-25" value="0.2" style="text;html=1;strokeColor=none;fillColor=none;align=center;verticalAlign=middle;whiteSpace=wrap;rounded=0;" vertex="1" parent="1">
          <mxGeometry x="400" y="90" width="60" height="30" as="geometry" />
        </mxCell>
      </root>
    </mxGraphModel>
  </diagram>
</mxfile>
